<svg width="26" height="27" viewBox="0 0 26 27" fill="none" xmlns="http://www.w3.org/2000/svg">
<path d="M23.9336 7.65492C23.3238 6.30738 22.4484 5.09754 21.3369 4.05492C20.2254 3.02213 18.9369 2.20574 17.5008 1.63525C16.0156 1.04508 14.4418 0.75 12.8189 0.75C11.1959 0.75 9.62214 1.04508 8.13689 1.63525C6.70083 2.20574 5.4123 3.01229 4.30083 4.05492C3.18935 5.09754 2.31395 6.30738 1.70412 7.65492C1.07461 9.05164 0.75 10.5467 0.75 12.0811C0.75 14.7664 1.75327 17.3434 3.59261 19.3893L2.60901 24.75L7.84181 22.4189C9.40575 23.0877 11.068 23.4221 12.809 23.4221C14.432 23.4221 16.0058 23.127 17.491 22.5369C18.9271 21.9664 20.2156 21.1598 21.3271 20.1172C22.4385 19.0746 23.3139 17.8648 23.9238 16.5172C24.5533 15.1205 24.8779 13.6254 24.8779 12.091C24.8877 10.5467 24.5631 9.06148 23.9336 7.65492Z" stroke="#00A63E" stroke-width="1.5"/>
<path d="M17.7171 14.3434C17.2056 14.0877 16.8319 13.9303 16.5663 13.832C16.3991 13.7729 16.0056 13.5959 15.8679 13.7041C15.4351 14.0582 14.9728 15.0615 14.481 15.2483C13.2614 15.0123 12.1302 14.1762 11.245 13.3205C10.8515 12.9467 10.1237 11.8844 9.96629 11.5992C9.93678 11.3041 10.4679 10.9106 10.5859 10.6844C11.1958 9.99589 10.7335 9.5631 10.6548 9.27786C10.5171 8.98278 10.2811 8.45163 10.0745 8.01884C9.89745 7.7336 9.85806 7.31064 9.54331 7.15327C8.20561 6.46474 7.43843 7.84179 7.12368 8.55982C5.22532 13.1336 16.6351 21.8385 18.9564 15.8385C19.0745 15.3172 19.0253 15.1205 18.8482 14.8844C18.4941 14.6385 18.081 14.5303 17.7171 14.3434Z" stroke="#00A63E" stroke-width="1.5"/>
</svg>
